_________________________  Visit us at _________________________
  
http://p2pdl.com  ____________________________  http://p2pdl.com


The Last Stand 2013 BRRip 720p x264 AAC - PRiSTiNE [P2PDL]

Genre: Action | Crime | Thriller
Plot: The leader of a drug cartel busts out 
of a courthouse and speeds to the Mexican 
border, where the only thing in his path 
is a sheriff and his inexperienced staff.
Stars: Rated R for strong bloody violence throughout, and language
Rated: PG 13

Info: 
http://www.imdb.com/title/tt1549920/

General
Complete name                  : The Last Stand 2013 BRRip 720p x264 AAC - PRiSTiNE.mp4
Format                         : MPEG-4
File size                      : 601 MiB
Duration                       : 1h 47mn
Overall bit rate mode          : Variable
Overall bit rate               : 785 Kbps

Video
Format                         : AVC
Format/Info                    : Advanced Video Codec
Format profile                 : High 10@L4.1
Bit rate                       : 703 Kbps
Width                          : 1 264 pixels
Height                         : 528 pixels
Display aspect ratio           : 2.40:1
Frame rate mode                : Constant
Frame rate                     : 24.000 fps
Bit depth                      : 10 bits
Stream size                    : 538 MiB (89%)
Writing library                : x264 core 130 r2273 b3065e6

Audio
Format                         : AAC
Format/Info                    : Advanced Audio Codec
Bit rate mode                  : Variable
Bit rate                       : 80.0 Kbps
Channel(s)                     : 2 channels
Channel positions              : Front: L R
Sampling rate                  : 48.0 KHz / 24.0 KHz
Stream size                    : 61.2 MiB (10%)

Subtitle                       : No
Source                         : 720p.BluRay.x264-DAA (Thanks)

Screens:
 
http://www.ultraimg.com/images/hXIFo.jpg 
http://www.ultraimg.com/images/yJxfI.jpg 
http://www.ultraimg.com/images/HR0T5.jpg 
http://www.ultraimg.com/images/ZPJKo.jpg 
http://www.ultraimg.com/images/1c3IY.jpg

----------------------------------------------------------------------------------------------------


Encoded using revolutionary 10bit encoding, which enables us to provide you more crispier 
and sharper images at small sizes, just make sure you follow our instructions without a fault.
Recommend to you to use latest version of VLC player. Install K-Lite Codec Pack or shark007 codecs
in case of any kind of problem in playback (For non-VLC Media Player users). Alternatively, install
Core AVC codecs, the fastest decoder that there is coupled with Community Center Codec Pack and play
on Windows Media Player Classic. Check sample to be sure.
Enjoy!

Encoder Notes:Looking For Early Access To Anything You Can Provide DVDScr, R5, DVDR, BluRay, Direct
Audio, Music Releases and Seedboxes. We require dedicated servers, so as to do more 
and fast releases of movies.
If You Got anything to offer please contact us at "prg@hush.com".

Face book Fan Page:   
http://www.fb.me/p2pdl